<svg enable-background="new 0 0 512 512" viewBox="0 0 512 512" xmlns="http://www.w3.org/2000/svg"><path d="m10.667 0h490.667c5.89 0 10.666 4.776 10.666 10.667v490.667c0 5.891-4.776 10.667-10.667 10.667h-490.666c-5.891-.001-10.667-4.777-10.667-10.668v-490.666c0-5.891 4.776-10.667 10.667-10.667z" fill="#90caf9"/><path d="m53.333 42.667h405.333c5.891 0 10.667 4.776 10.667 10.667v405.333c0 5.891-4.776 10.667-10.667 10.667h-405.333c-5.891 0-10.667-4.776-10.667-10.667v-405.334c.001-5.891 4.776-10.666 10.667-10.666z" fill="#283593"/><g fill="#90caf9"><path d="m160 362.667c-5.891 0-10.667-4.776-10.667-10.667v-192c-.048-5.375 3.91-9.947 9.237-10.667 31.211-4.267 73.707-4.629 99.136 17.621 13.193 11.715 20.402 28.752 19.627 46.379-.225 21.633-11.662 41.598-30.208 52.736-22.794 14.182-50.009 19.482-76.459 14.891v71.04c.001 5.891-4.775 10.667-10.666 10.667zm10.667-103.552c22.181 4.894 45.396 1.002 64.768-10.859 12.6-7.132 20.44-20.444 20.565-34.923.693-11.426-3.844-22.548-12.331-30.229-21.663-13.796-47.824-18.674-73.003-13.611v89.622z"/><path d="m342.229 363.157c-14.671.108-28.922-4.901-40.299-14.165-4.236-4.124-4.326-10.9-.203-15.136 4.124-4.236 10.9-4.326 15.136-.203 10.283 7.614 23.535 9.981 35.819 6.4 2.496-1.067 10.112-4.267 10.112-19.989 0-14.101-7.595-18.091-26.261-24.427-16.064-5.504-37.867-12.843-37.867-39.637-1.073-16.614 8.44-32.102 23.744-38.656 19.72-7.617 42.019-3.951 58.261 9.579 4.283 4.047 4.474 10.8.427 15.083s-10.8 4.474-15.083.427c-10.045-7.639-23.263-9.701-35.157-5.483-7.399 3.288-11.799 11.007-10.858 19.05 0 10.517 6.4 13.675 23.232 19.392 17.301 5.824 40.768 13.803 40.768 44.608 1.639 16.809-7.67 32.779-23.104 39.637-5.924 2.41-12.272 3.607-18.667 3.52z"/></g></svg>